Coordinates
version=1
nRows=7
nColumns=33
inDegrees=yes

Units are S.I. units (second, meters, Newtons, ...)
Angles are in degrees.

endheader
time	ground_thorax_rot_x	ground_thorax_rot_y	ground_thorax_rot_z	ground_thorax_tx	ground_thorax_ty	ground_thorax_tz	clav_prot_r	clav_elev_r	scapula_abduction_r	scapula_elevation_r	scapula_upward_rot_r	scapula_winging_r	shoulder_elv_r	plane_of_elev_r	axial_rot_r	elbow_flexion_r	pro_sup_r	wrist_flex_r	wrist_dev_r	clav_prot_l	clav_elev_l	scapula_abduction_l	scapula_elevation_l	scapula_upward_rot_l	scapula_winging_l	shoulder_elv_l	plane_of_elev_l	axial_rot_l	elbow_flexion_l	pro_sup_l	wrist_flex_l	wrist_dev_l
      5.98000000	     36.13181080	      1.85747354	      8.05355617	    -60.86490709	    794.82437918	      1.56966556	     16.69990073	     42.37841130	     45.00000000	     45.00000000	    -27.80231171	  -2956.29506231	  -1551.06644414	    143.86977557	    179.99999979	   1088.34808017	     38.42329248	     19.35748620	     15.56197405	      6.06949367	    -45.00000000	    -45.00000000	     45.00000000	    -10.39269455	   -275.35725512	  -3890.92521799	     27.21189579	      7.39231355	    359.16505972	     43.51650864	     10.67475503	    -18.88032741
      5.99000000	     36.10718230	      1.78191592	      8.15615960	    -60.10818938	    795.03495498	      1.69712544	     16.66464823	     42.47194750	     45.00000000	     45.00000000	    -27.75068501	  -2956.12411965	  -1551.05521459	    143.99752196	    179.99999979	   1088.33758862	     38.46654927	     19.29131658	     15.44884609	      6.26925026	    -45.00000000	    -45.00000000	     45.00000000	    -10.52183139	   -275.58310955	  -3890.80540686	     27.06905028	      7.39105057	    359.26665216	     43.64754554	     10.79626410	    -18.54787328
      6.00000000	     36.09641072	      1.57535881	      8.09166981	    -59.60518314	    795.28819914	      1.79877483	     16.71235188	     42.42762480	     45.00000000	     45.00000000	    -27.70903244	  -2956.19829535	  -1551.09022143	    143.79395862	    179.99999979	   1088.27464651	     38.54967375	     19.34916675	     15.54556732	      6.18416531	    -45.00000000	    -45.00000000	     45.00000000	    -10.30398530	   -275.57287249	  -3890.86615211	     27.17599667	      7.38433429	    359.10238908	     43.78910726	     10.62655142	    -18.65912190
      6.01000000	     36.05861456	      1.45413258	      8.10559915	    -59.35340762	    795.56574680	      1.86802036	     16.58593968	     42.50023190	     45.00000000	     45.00000000	    -27.54399135	  -2955.98176570	  -1551.03220573	    144.03581949	    179.99999979	   1088.28919180	     38.60388383	     19.34249440	     15.46722615	      6.09463276	    -45.00000000	    -45.00000000	     45.00000000	    -10.13415051	   -275.73560754	  -3890.68374619	     27.07467499	      7.31830302	    358.98714555	     44.04835269	     10.66988503	    -18.44401390
      6.02000000	     36.11071193	      1.20349909	      7.97197633	    -59.34705608	    795.85701768	      1.90185394	     16.62453947	     42.45082258	     45.00000000	     45.00000000	    -27.53264519	  -2956.31746934	  -1551.06675486	    143.73484073	    179.99999979	   1088.27483450	     38.67008929	     19.39992948	     15.51830672	      6.05819922	    -45.00000000	    -45.00000000	     45.00000000	     -9.91244850	   -275.53681551	  -3890.81788515	     27.20451891	      7.33524290	    358.99023817	     44.24978467	     10.57408169	    -18.60582870
      6.03000000	     36.03804825	      1.20220565	      8.12354611	    -59.58083877	    796.15080009	      1.89874525	     16.46110246	     42.38442903	     45.00000000	     45.00000000	    -27.36858661	  -2956.07619889	  -1551.03962605	    144.06668056	    179.99999979	   1088.48072347	     38.67788914	     19.46668373	     15.44348179	      5.92520572	    -45.00000000	    -45.00000000	     45.00000000	     -9.69004504	   -275.58583543	  -3890.74591318	     27.01328847	      7.37999883	    359.09985342	     44.46213302	     10.55231316	    -18.51310405
      6.04000000	     36.08156819	      0.93211443	      7.91389221	    -60.04539717	    796.44435204	      1.86049843	     16.51907968	     42.39724127	     45.00000000	     45.00000000	    -27.47797877	  -2956.52995350	  -1550.96936585	    143.53539013	    179.99999979	   1088.47532635	     38.70215161	     19.51441145	     15.45768646	      5.91846808	    -45.00000000	    -45.00000000	     45.00000000	     -9.52184505	   -275.33458558	  -3890.77622121	     27.32411584	      7.40612886	    359.06948527	     44.62147333	     10.52847269	    -18.65972905
